<?xml version="1.0" encoding="UTF-8" standalone="no"?><!DOCTYPE svg PUBLIC "-//W3C//DTD SVG 1.1//EN" "http://www.w3.org/Graphics/SVG/1.1/DTD/svg11.dtd"><svg width="100%" height="100%" viewBox="0 0 4619 2044" version="1.1" xmlns="http://www.w3.org/2000/svg" xmlns:xlink="http://www.w3.org/1999/xlink" xml:space="preserve" xmlns:serif="http://www.serif.com/" style="fill-rule:evenodd;clip-rule:evenodd;stroke-linejoin:round;stroke-miterlimit:2;"><g id="NOME"><g id="PDF"><path d="M2880.055,708.442l0,357.474l-162.982,0l0,-1025.42l263.241,0c190.31,0 285.466,108.125 285.466,324.374c0,105.036 -28.728,189.218 -86.183,252.549c-57.455,63.33 -129.316,93.671 -215.581,91.023l-83.96,0Zm0,-498.477l0,330.994l70.626,0c95.814,0 143.721,-55.828 143.721,-167.483c0,-109.007 -47.413,-163.511 -142.239,-163.511l-72.107,0Z" style="fill:url(#_Linear1);fill-rule:nonzero;"/><path d="M3381.842,1065.916l0,-1025.42l264.228,0c271.637,0 407.455,166.6 407.455,499.801c0,158.436 -38.029,285.648 -114.087,381.636c-76.058,95.988 -174.177,143.982 -294.355,143.982l-263.241,0Zm162.982,-846.683l0,667.946l88.899,0c77.375,0 138.123,-30.893 182.244,-92.678c44.12,-61.786 66.181,-145.417 66.181,-250.894c0,-101.946 -23.048,-181.495 -69.144,-238.647c-46.096,-57.152 -106.021,-85.728 -179.774,-85.728l-88.405,0Z" style="fill:url(#_Linear2);fill-rule:nonzero;"/><path d="M4618.53,219.233l-273.118,0l0,263.471l251.387,0l0,178.737l-251.387,0l0,404.475l-162.982,0l0,-1025.42l436.1,0l0,178.737Z" style="fill:url(#_Linear3);fill-rule:nonzero;"/></g><g transform="matrix(1498.120737,0,0,1498.120737,2686.083665,1029.958007)"></g><text x="-100.216px" y="1029.958px" style="font-family:'MonotypeCorsiva', 'Monotype Corsiva', cursive;font-style:italic;font-size:1498.121px;fill:url(#_Linear4);">Bday</text><g id="CREATOR"><path d="M733.643,1993.04c-68.766,33.773 -158.488,50.659 -269.165,50.659c-142.415,0 -255.432,-42.623 -339.05,-127.869c-83.618,-85.246 -125.427,-198.873 -125.427,-340.881c0,-149.333 46.692,-271.505 140.076,-366.516c93.384,-95.011 213.928,-142.517 361.633,-142.517c92.367,0 169.678,12.004 231.934,36.011l0,194.702c-63.883,-37.435 -136.312,-56.152 -217.285,-56.152c-92.367,0 -166.219,29.5 -221.558,88.501c-55.339,59.001 -83.008,136.108 -83.008,231.323c0,92.773 26.245,167.44 78.735,223.999c52.49,56.559 123.494,84.839 213.013,84.839c84.229,0 160.929,-20.345 230.103,-61.035l0,184.937Z" style="fill:url(#_Linear5);fill-rule:nonzero;"/><path d="M1311.646,1531.004c-24.007,-13.835 -53.101,-20.752 -87.28,-20.752c-44.759,0 -80.261,17.09 -106.506,51.27c-26.245,34.18 -39.368,81.177 -39.368,140.991l0,324.707l-197.144,0l0,-675.049l197.144,0l0,126.953l2.441,0c32.552,-92.367 91.756,-138.55 177.612,-138.55c23.193,0 40.894,2.645 53.101,7.935l0,182.495Z" style="fill:url(#_Linear6);fill-rule:nonzero;"/><path d="M2004.395,1745.237l-444.336,0c6.917,104.574 69.987,156.86 189.209,156.86c74.463,0 140.177,-18.311 197.144,-54.932l0,144.653c-61.442,34.587 -142.008,51.88 -241.699,51.88c-107.422,0 -190.938,-30.314 -250.549,-90.942c-59.611,-60.628 -89.417,-145.06 -89.417,-253.296c0,-107.829 31.738,-195.414 95.215,-262.756c63.477,-67.342 143.229,-101.013 239.258,-101.013c95.622,0 170.39,28.992 224.304,86.975c53.914,57.983 80.872,137.634 80.872,238.953l0,83.618Zm-183.716,-123.291c0,-100.911 -40.894,-151.367 -122.681,-151.367c-33.773,0 -63.68,13.835 -89.722,41.504c-26.042,27.669 -42.318,64.29 -48.828,109.863l261.23,0Z" style="fill:url(#_Linear7);fill-rule:nonzero;"/><path d="M2149.048,1393.065c30.518,-17.09 71.309,-30.924 122.375,-41.504c51.066,-10.579 94.706,-15.869 130.92,-15.869c188.802,0 283.203,94.604 283.203,283.813l0,407.715l-187.378,0l0,-98.267l-2.441,0c-45.98,76.497 -113.322,114.746 -202.026,114.746c-63.883,0 -115.051,-18.209 -153.503,-54.626c-38.452,-36.418 -57.678,-85.958 -57.678,-148.621c0,-129.395 77.108,-204.671 231.323,-225.83l185.547,-25.024c0,-78.532 -40.894,-117.798 -122.681,-117.798c-80.566,0 -156.453,24.414 -227.661,73.242l0,-151.978Zm222.778,328.369c-71.208,9.359 -106.812,41.504 -106.812,96.436c0,25.228 8.647,45.573 25.94,61.035c17.293,15.462 40.588,23.193 69.885,23.193c40.283,0 73.446,-14.242 99.487,-42.725c26.042,-28.483 39.062,-63.883 39.062,-106.201l0,-48.218l-127.563,16.479Z" style="fill:url(#_Linear8);fill-rule:nonzero;"/><path d="M3251.953,2019.285c-29.704,16.276 -74.666,24.414 -134.888,24.414c-143.229,0 -214.844,-75.277 -214.844,-225.83l0,-318.604l-111.084,0l0,-147.095l111.084,0l0,-148.315l195.923,-56.152l0,204.468l153.809,0l0,147.095l-153.809,0l0,284.424c0,72.021 28.483,108.032 85.449,108.032c21.973,0 44.759,-6.51 68.359,-19.531l0,147.095Z" style="fill:url(#_Linear9);fill-rule:nonzero;"/><path d="M3326.416,1692.747c0,-111.084 33.264,-198.364 99.792,-261.841c66.528,-63.477 155.945,-95.215 268.25,-95.215c108.643,0 194.906,31.23 258.789,93.689c63.883,62.459 95.825,146.383 95.825,251.77c0,110.677 -32.756,198.771 -98.267,264.282c-65.511,65.511 -154.215,98.267 -266.113,98.267c-109.863,0 -197.042,-31.433 -261.536,-94.299c-64.494,-62.866 -96.741,-148.417 -96.741,-256.653Zm199.585,-2.441c0,134.684 54.932,202.026 164.795,202.026c105.387,0 158.081,-69.173 158.081,-207.52c0,-131.836 -53.101,-197.754 -159.302,-197.754c-51.676,0 -91.858,17.7 -120.544,53.101c-28.687,35.4 -43.03,85.449 -43.03,150.146Z" style="fill:url(#_Linear10);fill-rule:nonzero;"/><path d="M4618.53,1531.004c-24.007,-13.835 -53.101,-20.752 -87.28,-20.752c-44.759,0 -80.261,17.09 -106.506,51.27c-26.245,34.18 -39.368,81.177 -39.368,140.991l0,324.707l-197.144,0l0,-675.049l197.144,0l0,126.953l2.441,0c32.552,-92.367 91.756,-138.55 177.612,-138.55c23.193,0 40.894,2.645 53.101,7.935l0,182.495Z" style="fill:url(#_Linear11);fill-rule:nonzero;"/></g></g><defs><linearGradient id="_Linear1" x1="0" y1="0" x2="1" y2="0" gradientUnits="userSpaceOnUse" gradientTransform="matrix(3737.227699,0,0,2118.225063,913.405099,1099.608488)"><stop offset="0" style="stop-color:#120a8e;stop-opacity:1"/><stop offset="1" style="stop-color:#123355;stop-opacity:1"/></linearGradient><linearGradient id="_Linear2" x1="0" y1="0" x2="1" y2="0" gradientUnits="userSpaceOnUse" gradientTransform="matrix(3737.227699,0,0,2118.225063,913.405099,1099.608488)"><stop offset="0" style="stop-color:#120a8e;stop-opacity:1"/><stop offset="1" style="stop-color:#123355;stop-opacity:1"/></linearGradient><linearGradient id="_Linear3" x1="0" y1="0" x2="1" y2="0" gradientUnits="userSpaceOnUse" gradientTransform="matrix(3737.227699,0,0,2118.225063,913.405099,1099.608488)"><stop offset="0" style="stop-color:#120a8e;stop-opacity:1"/><stop offset="1" style="stop-color:#123355;stop-opacity:1"/></linearGradient><linearGradient id="_Linear4" x1="0" y1="0" x2="1" y2="0" gradientUnits="userSpaceOnUse" gradientTransform="matrix(2476.710889,0,0,1455.20582,-100.216084,705.495226)"><stop offset="0" style="stop-color:#f00;stop-opacity:1"/><stop offset="1" style="stop-color:#b13838;stop-opacity:1"/></linearGradient><linearGradient id="_Linear5" x1="0" y1="0" x2="1" y2="0" gradientUnits="userSpaceOnUse" gradientTransform="matrix(4618.530273,0,0,1952.997739,0,1067.200424)"><stop offset="0" style="stop-color:#120a8e;stop-opacity:1"/><stop offset="1" style="stop-color:#123553;stop-opacity:1"/></linearGradient><linearGradient id="_Linear6" x1="0" y1="0" x2="1" y2="0" gradientUnits="userSpaceOnUse" gradientTransform="matrix(4618.530273,0,0,1952.997739,0,1067.200424)"><stop offset="0" style="stop-color:#120a8e;stop-opacity:1"/><stop offset="1" style="stop-color:#123553;stop-opacity:1"/></linearGradient><linearGradient id="_Linear7" x1="0" y1="0" x2="1" y2="0" gradientUnits="userSpaceOnUse" gradientTransform="matrix(4618.530273,0,0,1952.997739,0,1067.200424)"><stop offset="0" style="stop-color:#120a8e;stop-opacity:1"/><stop offset="1" style="stop-color:#123553;stop-opacity:1"/></linearGradient><linearGradient id="_Linear8" x1="0" y1="0" x2="1" y2="0" gradientUnits="userSpaceOnUse" gradientTransform="matrix(4618.530273,0,0,1952.997739,0,1067.200424)"><stop offset="0" style="stop-color:#120a8e;stop-opacity:1"/><stop offset="1" style="stop-color:#123553;stop-opacity:1"/></linearGradient><linearGradient id="_Linear9" x1="0" y1="0" x2="1" y2="0" gradientUnits="userSpaceOnUse" gradientTransform="matrix(4618.530273,0,0,1952.997739,0,1067.200424)"><stop offset="0" style="stop-color:#120a8e;stop-opacity:1"/><stop offset="1" style="stop-color:#123553;stop-opacity:1"/></linearGradient><linearGradient id="_Linear10" x1="0" y1="0" x2="1" y2="0" gradientUnits="userSpaceOnUse" gradientTransform="matrix(4618.530273,0,0,1952.997739,0,1067.200424)"><stop offset="0" style="stop-color:#120a8e;stop-opacity:1"/><stop offset="1" style="stop-color:#123553;stop-opacity:1"/></linearGradient><linearGradient id="_Linear11" x1="0" y1="0" x2="1" y2="0" gradientUnits="userSpaceOnUse" gradientTransform="matrix(4618.530273,0,0,1952.997739,0,1067.200424)"><stop offset="0" style="stop-color:#120a8e;stop-opacity:1"/><stop offset="1" style="stop-color:#123553;stop-opacity:1"/></linearGradient></defs></svg>